<svg width="24" height="33" viewBox="0 0 24 33" fill="none" xmlns="http://www.w3.org/2000/svg">
<g id="Design">
<path id="Vector" fill-rule="evenodd" clip-rule="evenodd" d="M11.3115 28.5169C8.83527 28.4647 6.33094 28.7572 3.90601 29.0585C3.38415 29.1251 3.00218 29.5905 3.08989 30.0871C3.14154 30.5934 3.61661 30.9476 4.10232 30.8902C6.45214 30.5963 8.87912 30.304 11.2408 30.3599C11.7448 30.3741 12.1812 29.9704 12.2055 29.4604C12.23 28.9508 11.8155 28.5314 11.3115 28.5169Z" fill="#A15842"/>
<path id="Vector_2" fill-rule="evenodd" clip-rule="evenodd" d="M16.0195 17.6611C11.3443 14.8615 6.32166 12.6634 1.69326 9.74486C1.27664 9.46832 0.693347 9.59603 0.41704 10.0232C0.140824 10.4507 0.248231 11.0244 0.701 11.2917C5.33221 14.2213 10.3575 16.4301 15.0355 19.2407C15.4861 19.4996 16.0657 19.3576 16.3395 18.9208C16.5773 18.4936 16.4701 17.9199 16.0195 17.6611Z" fill="#A15842"/>
<path id="Vector_3" fill-rule="evenodd" clip-rule="evenodd" d="M19.3366 1.48117C19.9898 3.59747 20.6427 5.71381 21.2959 7.83046C21.4207 8.32153 21.9511 8.59042 22.4511 8.43796C22.951 8.28514 23.2061 7.77534 23.0813 7.28392C22.4272 5.16406 21.7735 3.0445 21.1195 0.925003C20.9586 0.443127 20.429 0.176692 19.9297 0.332006C19.4666 0.478135 19.1758 0.999653 19.3366 1.48117Z" fill="#A15842"/>
</g>
</svg>
