<svg width="51" height="51" viewBox="0 0 51 51" fill="none" xmlns="http://www.w3.org/2000/svg">
<g id="indeed.svg" clip-path="url(#clip0_96_1514)">
<path id="Vector" d="M31.3792 21.9751C30.2706 22.5439 29.0179 22.7705 27.7803 22.6262C26.5427 22.4818 25.3758 21.973 24.4279 21.1642C23.48 20.3555 22.7937 19.2834 22.4563 18.0839C22.1188 16.8844 22.1453 15.6117 22.5325 14.4274C22.9196 13.243 23.65 12.2004 24.6308 11.4319C25.6116 10.6634 26.7986 10.2036 28.0412 10.1109C29.2837 10.0182 30.5258 10.2969 31.6098 10.9114C32.6937 11.526 33.5706 12.4487 34.1292 13.5626C34.5024 14.2962 34.7273 15.0962 34.791 15.9169C34.8548 16.7375 34.7561 17.5627 34.5007 18.3451C34.2453 19.1276 33.8381 19.8521 33.3025 20.4771C32.7669 21.1021 32.1133 21.6154 31.3792 21.9876V21.9751ZM24.6667 1.69172C29.8125 -0.185362 35.6958 -0.0832784 40.1 3.73755C41.0301 4.50324 41.7613 5.48245 42.2313 6.59172C42.675 8.02922 40.6708 6.44589 40.3979 6.24172C39.009 5.29219 37.5035 4.52547 35.9188 3.96047C27.2438 1.30422 19.0354 6.13964 13.9646 13.6584C11.8982 16.9744 10.3208 20.5712 9.28126 24.3376C9.18569 24.7991 9.03677 25.2479 8.83751 25.6751C8.61459 26.1001 8.73542 24.5355 8.73542 24.4834C8.92147 22.909 9.22086 21.3501 9.63126 19.8188C11.9813 11.6251 17.1875 4.80214 24.6667 1.67714V1.69172ZM24.7438 45.4271V27.1709C25.2625 27.223 25.7563 27.248 26.2771 27.248C28.6415 27.2554 30.9621 26.6102 32.9833 25.3834V45.4251C32.9833 47.1376 32.6708 48.4042 31.9 49.2292C31.5182 49.6479 31.0499 49.9784 30.5275 50.1978C30.0051 50.4173 29.4412 50.5204 28.875 50.5001C28.3167 50.52 27.7608 50.4166 27.247 50.1973C26.7332 49.978 26.274 49.6482 25.9021 49.2313C25.1354 48.3896 24.7354 47.1209 24.7354 45.4292L24.7438 45.4271Z" fill="black"/>
</g>
<defs>
<clipPath id="clip0_96_1514">
<rect width="50" height="50" fill="white" transform="translate(0.5 0.5)"/>
</clipPath>
</defs>
</svg>
