<svg width="51" height="51" viewBox="0 0 51 51" fill="none" xmlns="http://www.w3.org/2000/svg">
<g id="glassdoor-icon.svg" clip-path="url(#clip0_96_1457)">
<g id="Group">
<g id="Group_2">
<path id="Vector" fill-rule="evenodd" clip-rule="evenodd" d="M36.1931 43.3906H7.75562C7.75562 47.375 10.9587 50.5 14.865 50.5H36.115C40.0212 50.5 43.2244 47.2969 43.2244 43.3906V14.0156C43.2244 13.8594 43.1462 13.7812 42.99 13.7812H36.4275C36.2712 13.7812 36.1931 13.8594 36.1931 14.0156V43.3906ZM36.1931 0.5C40.0994 0.5 43.3025 3.70312 43.3025 7.6875H14.865V37.0625C14.865 37.2188 14.7087 37.2969 14.6306 37.2969H7.98999C7.83374 37.2969 7.75562 37.1406 7.75562 37.0625V7.6875C7.75562 3.70312 10.9587 0.5 14.865 0.5H36.1931Z" fill="#0DAB40"/>
</g>
</g>
</g>
<defs>
<clipPath id="clip0_96_1457">
<rect width="50" height="50" fill="white" transform="translate(0.48999 0.5)"/>
</clipPath>
</defs>
</svg>
