<svg width="59" height="45" viewBox="0 0 59 45" fill="none" xmlns="http://www.w3.org/2000/svg">
<path id="Vector" fill-rule="evenodd" clip-rule="evenodd" d="M22.9272 10.6801C23.8576 9.74291 24.9073 8.90233 26.0109 8.19249C28.1696 6.80392 31.4832 5.40891 34.6496 5.04395C36.8199 4.7938 38.9205 5.03065 40.5602 6.03985C43.6834 7.96208 44.6856 11.7477 44.2842 15.834C43.9914 18.8142 42.9574 21.9496 41.5114 24.5871C43.3324 23.2759 45.7299 21.9847 48.137 21.4745C50.8351 20.9005 53.5407 21.2969 55.5265 23.6295C59.6765 28.5054 58.4157 33.7818 54.9012 37.8663C51.4484 41.8783 45.802 44.7146 41.1207 44.8276C40.8731 44.8328 40.6674 44.637 40.6616 44.3899C40.6557 44.1428 40.8517 43.9374 41.0992 43.9322C45.5595 43.8231 50.9313 41.106 54.221 37.2824C57.4488 33.5315 58.6544 28.6872 54.8433 24.2107C53.0942 22.1563 50.6998 21.844 48.3232 22.3495C45.8507 22.8755 43.3925 24.2753 41.6217 25.6187C41.1421 25.9817 40.6576 26.3423 40.1781 26.7098C38.9661 28.3949 37.5814 29.7139 36.1607 30.4318C35.8078 30.6088 35.6131 30.3862 35.5616 30.3212C35.4912 30.2325 35.4166 30.0858 35.493 29.8781C35.5074 29.839 35.545 29.7645 35.617 29.6788C35.7155 29.5633 35.9391 29.3459 36.0305 29.2417C36.4069 28.8085 36.827 28.4023 37.2409 28.0072C37.9601 27.3185 38.7351 26.6915 39.5248 26.084C39.631 25.9332 39.7357 25.781 39.8389 25.6259C41.6854 22.8439 43.0537 19.1878 43.3918 15.7469C43.757 12.0285 42.9314 8.5515 40.0895 6.80244C38.6102 5.89198 36.7101 5.70806 34.7521 5.93377C31.7258 6.28254 28.5594 7.61827 26.4964 8.94538C25.2362 9.75601 24.0494 10.7453 23.0451 11.8585C22.7118 12.228 22.4156 12.6385 22.1333 13.0481C22.1023 13.0931 22.06 13.1592 22.0131 13.2349C21.8947 13.4596 21.7675 13.6773 21.6312 13.8877C21.5593 13.9984 21.5067 14.0408 21.4971 14.0484C21.2459 14.249 21.039 14.1248 20.9496 14.0586C20.923 14.0389 20.6531 13.8258 20.8186 13.4904C20.8523 13.4224 21.068 13.0549 21.2415 12.777C22.492 10.3813 22.6215 7.18232 21.6937 4.69521C21.1054 3.1186 20.0893 1.82567 18.635 1.24882C17.6679 0.865342 16.512 0.802838 15.1717 1.16562C11.9393 2.04061 9.38348 4.20619 7.17676 6.77267C4.91932 9.39812 3.02759 12.4452 1.17876 15.023C1.0347 15.224 0.754331 15.2704 0.553153 15.1264C0.351991 14.9826 0.305646 14.7026 0.449847 14.5016C2.31281 11.9038 4.22163 8.8351 6.49644 6.18919C8.82214 3.48446 11.5306 1.2233 14.9373 0.30118C16.4967 -0.120982 17.8411 -0.0298003 18.9662 0.41635C20.6499 1.08405 21.8531 2.55694 22.534 4.38224C23.2456 6.2897 23.3825 8.57987 22.9272 10.6801Z" fill="#A15842"/>
</svg>
