<svg width="51" height="51" viewBox="0 0 51 51" fill="none" xmlns="http://www.w3.org/2000/svg">
<g id="quora-icon.svg" clip-path="url(#clip0_96_1499)">
<path id="Vector" d="M99.9319 34.906C99.0702 33.2131 98.0637 31.505 96.0963 31.505C95.7175 31.495 95.3415 31.5733 94.9983 31.7338L94.3272 30.3917C95.1431 29.6902 96.4623 29.1411 98.1552 29.1411C100.786 29.1411 102.143 30.407 103.211 32.0388C103.851 30.6662 104.149 28.7904 104.149 26.4722C104.149 20.6922 102.342 17.7259 98.0484 17.7259C93.8926 17.7259 92.1006 20.776 92.1006 26.4722C92.1006 32.1684 93.9002 35.1652 98.0484 35.1652C98.6584 35.1715 99.2664 35.0945 99.8557 34.9365L99.9319 34.906ZM100.961 36.9191C100.034 37.1692 99.0777 37.2974 98.1171 37.3004C92.581 37.3004 87.1593 32.8776 87.1593 26.457C87.1593 19.9754 92.4971 15.5526 98.1171 15.5526C103.745 15.5526 109.121 19.9449 109.121 26.457C109.121 30.0867 107.428 33.0301 104.972 34.9365C105.765 36.126 106.589 36.9191 107.717 36.9191C108.96 36.9191 109.471 35.9583 109.548 35.2034H111.164C111.256 36.2099 110.76 40.3734 106.231 40.3734C103.485 40.3734 102.037 38.7873 100.954 36.9191H100.961ZM112.682 31.4059V23.9864C112.682 23.2238 112.377 22.7663 111.401 22.7663H110.364V20.7837H117.127V31.3068C117.127 33.0835 118.088 33.8689 119.552 33.8689C120.749 33.8689 121.954 33.3351 122.602 32.1151V23.9864C122.602 23.2238 122.297 22.7663 121.321 22.7663H120.231V20.7837H127.056V31.8177C127.056 32.9157 127.46 33.3428 128.718 33.3428H128.947V35.3788L122.846 36.3472V34.2502H122.724C122.103 35.0302 121.307 35.6543 120.402 36.0726C119.496 36.491 118.506 36.692 117.509 36.6598C114.84 36.6598 112.705 35.3101 112.705 31.322L112.682 31.4059ZM137.792 34.7611C140.194 34.7611 141.109 32.6717 141.147 28.4625C141.193 24.3447 140.187 22.3621 137.792 22.3621C135.695 22.3621 134.376 24.36 134.376 28.4625C134.376 32.6717 135.672 34.7611 137.792 34.7611ZM137.792 36.7437C136.702 36.7581 135.62 36.5538 134.61 36.143C133.6 35.7323 132.683 35.1232 131.913 34.352C131.142 33.5807 130.534 32.6629 130.124 31.6526C129.714 30.6424 129.511 29.5602 129.526 28.4701C129.526 23.6127 133.354 20.3871 137.792 20.3871C142.421 20.3871 146.127 23.6813 146.127 28.4701C146.127 33.4266 142.421 36.7437 137.792 36.7437ZM146.272 36.4387V34.4561H146.927C148.559 34.4561 148.712 33.9833 148.712 32.5726V23.9864C148.712 23.2238 148.27 22.7663 147.187 22.7663H146.31V20.7837H152.502L152.807 24.0092H153.02C153.783 21.6911 155.559 20.4634 157.29 20.4634C158.724 20.4634 159.837 21.2793 159.837 22.9264C159.837 24.0702 159.288 25.214 157.74 25.214C156.353 25.214 156.078 24.2761 154.919 24.2761C153.897 24.2761 153.104 25.2522 153.104 26.6781V32.4735C153.104 33.8842 153.447 34.3569 155.049 34.3569H155.964V36.3396H146.256L146.272 36.4387ZM166.899 34.1511C168.881 34.1511 169.689 32.2828 169.689 30.3993V27.883C168.164 29.3775 164.885 29.4309 164.885 32.0922C164.885 33.3885 165.671 34.1511 166.899 34.1511ZM169.781 34.1434C168.965 35.7143 167.295 36.7666 164.954 36.7666C162.239 36.7666 160.486 35.2415 160.486 32.7861C160.486 27.6771 167.6 29.0344 169.689 25.6487V25.2827C169.689 22.69 168.668 22.2706 167.539 22.2706C164.374 22.2706 165.816 25.6716 162.903 25.6716C161.5 25.6716 160.958 24.909 160.958 23.8796C160.958 21.958 163.246 20.4024 167.57 20.4024C171.657 20.4024 174.166 21.531 174.166 25.5877V32.0693C174.166 33.0759 174.532 33.6173 175.409 33.6173C175.74 33.6241 176.065 33.5282 176.339 33.3428L176.873 34.6162C176.446 35.272 175.302 36.4311 173.06 36.4311C171.176 36.4311 170.01 35.5541 169.842 34.1206H169.796L169.781 34.1434ZM27.0022 39.4812C25.2712 36.0727 23.2353 32.6183 19.27 32.6183C18.4854 32.6094 17.7071 32.7598 16.9824 33.0606L15.6327 30.3612C17.2722 28.9505 19.9258 27.8448 23.2581 27.8448C28.5578 27.8448 31.2801 30.3993 33.4457 33.663C34.7268 30.8797 35.3368 27.1204 35.3368 22.4536C35.3368 10.8172 31.6995 4.91513 23.1971 4.91513C14.8091 4.91513 11.2023 10.8935 11.2023 22.4536C11.2023 34.0138 14.8244 39.9388 23.1971 39.9388C24.4284 39.9551 25.6557 39.7959 26.8421 39.466L27.0022 39.4812ZM29.0763 43.5456C27.2111 44.0467 25.2886 44.3031 23.3573 44.3081C12.2012 44.3158 1.27399 35.4093 1.27399 22.4613C1.27399 9.39889 12.2012 0.5 23.3573 0.5C34.6963 0.5 45.5015 9.34551 45.5015 22.4613C45.5297 25.7609 44.79 29.0219 43.3408 31.9864C41.8916 34.9509 39.7728 37.5377 37.1517 39.5422C38.6768 41.9366 40.4001 43.5303 42.6954 43.5303C45.1965 43.5303 46.2031 41.5935 46.3785 40.076H49.6421C49.8328 42.0968 48.8186 50.4924 39.7062 50.4924C34.1854 50.4924 31.2648 47.2973 29.0763 43.5456Z" fill="#B92B27"/>
</g>
<defs>
<clipPath id="clip0_96_1499">
<rect width="50" height="50" fill="white" transform="translate(0.5 0.5)"/>
</clipPath>
</defs>
</svg>
